# xmcd CD database file
#
# Track frame offsets:
#	150
#	25054
#	44695
#	65084
#	82569
#	103777
#	122652
#	143444
#	165148
#	182284
#	206361
#	229752
#	250138
#	272844
#
# Disc length: 3894 seconds
#
# Revision: 4
# Processed by: cddbd v1.5.1PL0 Copyright (c) Steve Scherf et al.
# Submitted via: CDex 1.51
#
DISCID=ab0f340e
DTITLE=Various Artist - LOVE STORIES I[CDII)
DYEAR=2003
DGENRE=J-POP
TTITLE0=名もなき詩
TTITLE1=SEASONS
TTITLE2=KISS OF LIFE
TTITLE3=TRUE LOVE
TTITLE4=You were mine
TTITLE5=ひだまりの詩
TTITLE6=幸せな結末
TTITLE7=慟哭
TTITLE8=今すぐKiss Me
TTITLE9=Way to Love
TTITLE10=そのスピードで
TTITLE11=海とあなたの物語
TTITLE12=Yesterday&Today
TTITLE13=｢別れの曲」
EXTD=YEAR: 2003
EXTT0=
EXTT1=
EXTT2=
EXTT3=
EXTT4=
EXTT5=
EXTT6=
EXTT7=
EXTT8=
EXTT9=
EXTT10=
EXTT11=
EXTT12=
EXTT13=
PLAYORDER=
